<svg width="21" height="21" viewBox="0 0 21 21" fill="none" xmlns="http://www.w3.org/2000/svg">
<path d="M19.6875 15.75H19.0312V13.7812C19.0312 13.6072 18.9621 13.4403 18.839 13.3172C18.716 13.1941 18.549 13.125 18.375 13.125H13.125C12.951 13.125 12.784 13.1941 12.661 13.3172C12.5379 13.4403 12.4688 13.6072 12.4688 13.7812V15.75H3.28125V4.59375H17.7188V11.1562C17.7188 11.3303 17.7879 11.4972 17.911 11.6203C18.034 11.7434 18.201 11.8125 18.375 11.8125C18.549 11.8125 18.716 11.7434 18.839 11.6203C18.9621 11.4972 19.0312 11.3303 19.0312 11.1562V4.59375C19.0312 4.24565 18.893 3.91181 18.6468 3.66567C18.4007 3.41953 18.0668 3.28125 17.7188 3.28125H3.28125C2.93315 3.28125 2.59931 3.41953 2.35317 3.66567C2.10703 3.91181 1.96875 4.24565 1.96875 4.59375V15.75H1.3125C1.13845 15.75 0.971532 15.8191 0.848461 15.9422C0.72539 16.0653 0.65625 16.2322 0.65625 16.4062C0.65625 16.5803 0.72539 16.7472 0.848461 16.8703C0.971532 16.9934 1.13845 17.0625 1.3125 17.0625H19.6875C19.8615 17.0625 20.0285 16.9934 20.1515 16.8703C20.2746 16.7472 20.3438 16.5803 20.3438 16.4062C20.3438 16.2322 20.2746 16.0653 20.1515 15.9422C20.0285 15.8191 19.8615 15.75 19.6875 15.75ZM13.7812 14.4375H17.7188V15.75H13.7812V14.4375Z" fill="#5AC06E"/>
</svg>
